<?xml version="1.0" encoding="utf-8"?>
<svg xmlns="http://www.w3.org/2000/svg" viewBox="0 0 120 120">
  <g id="Layer_1" transform="matrix(1, 0, 0, 1, -154.65033, -158.056686)">
    <g transform="matrix(1, 0, 0, 1, 183.127487, 225.472763)">
      <g transform="matrix(1, 0, 0, 1, -17.883963, -57.944077)">
        <path style="fill: rgb(79, 70, 229);" d="M50.934,42.083c0,0-17.998-21.81,0.813-42.083C51.746,0,69.385,21.21,50.934,42.083z"/>
      </g>
      <g transform="matrix(1, 0, 0, 1, -17.883963, -57.944077)">
        <path style="fill: rgb(79, 70, 229);" d="M68.706,44.243c0,0,0.001-15.213,15.904-21.437c0,0-11.063-6.914-22.818,3.458 C50.036,36.636,56.26,55.306,56.26,55.306L68.706,44.243z"/>
      </g>
      <g transform="matrix(1, 0, 0, 1, -17.883963, -57.944077)">
        <path style="fill: rgb(79, 70, 229);" d="M60.977,38.516c0,0,0.001-17.429,18.222-24.559c0,0-12.675-7.923-26.145,3.961 c-13.468,11.884-6.338,33.274-6.338,33.274L60.977,38.516z"/>
      </g>
      <g transform="matrix(1, 0, 0, 1, -17.883963, -57.944077)">
        <path style="fill: rgb(79, 70, 229);" d="M32.14,44.243c0,0-0.001-15.213-15.904-21.437c0,0,11.062-6.914,22.818,3.458 c11.756,10.371,5.532,29.041,5.532,29.041L32.14,44.243z"/>
      </g>
      <g transform="matrix(1, 0, 0, 1, -17.883963, -57.944077)">
        <path style="fill: rgb(79, 70, 229);" d="M39.868,38.516c0,0-0.001-17.429-18.222-24.559c0,0,12.675-7.923,26.145,3.961 c13.468,11.884,6.338,33.274,6.338,33.274L39.868,38.516z"/>
      </g>
      <g transform="matrix(1, 0, 0, 1, -17.883963, -57.944077)">
        <path style="fill: rgb(79, 70, 229);" d="M75.95,75.58c0,13.954-11.312,25.266-25.266,25.266h-0.469c-13.954,0-25.266-11.312-25.266-25.266 V60.111c0-13.954,11.311-25.266,25.266-25.266h0.469c13.954,0,25.266,11.312,25.266,25.266V75.58z"/>
      </g>
    </g>
  </g>
</svg>